<svg xmlns="http://www.w3.org/2000/svg" width="13.8" height="15" fill="#ffffff"><g data-name="Group 48"><path data-name="Rectangle 39" d="M9 0h4.8v3H9z"/><path data-name="Rectangle 40" d="M9 6h4.8v3H9z"/><path data-name="Rectangle 41" d="M9 12h4.8v3H9z"/><path data-name="Subtraction 3" d="M9.2 15H0V0h9.2v15zM2.939 7.836h1.837L6.473 11H7.58v-.064l-1.837-3.32a2.355 2.355 0 001.1-.811 2.112 2.112 0 00.4-1.273 2.175 2.175 0 00-.712-1.751 3.08 3.08 0 00-2.033-.6H1.9V11h1.039V7.837zm1.584-.843H2.939V4.028h1.579a1.842 1.842 0 011.249.392A1.419 1.419 0 016.2 5.532 1.351 1.351 0 015.746 6.6a1.8 1.8 0 01-1.223.393z"/></g></svg>